# xmcd
#
# Track frame offsets:
#	150
#	16865
#	28330
#	42502
#	60085
#	74977
#	89120
#	105942
#	119695
#	133192
#	152460
#	168542
#	180887
#	197172
#
# Disc length: 2826
#
# Revision: 1
# Processed by: cddbd v1.5.1PL0 Copyright (c) Steve Scherf et al.
# Submitted via: VisiTrax 2.9.3.171 - For more info visit www.synapsa.com
# Normalized: r0:DSETVAR1
#
DISCID=c20b080e
DTITLE=Various Artist - Mr Music Country 2-97
DYEAR=1900
DGENRE=
TTITLE0=Tex Beaumont - One-Eyed Jacks
TTITLE1=Diane Elliott - He Don't Want To Hold Me
TTITLE2=Cole Garrity - Coldest Thing Since 1951
TTITLE3=Tony martin - Where Love Started Out
TTITLE4=Gina Jeffreys - Under The Influence Of Love
TTITLE5=Frank Jansen - You're The Phone Call I Need To Make
TTITLE6=Tommy Rogers - Class Of '72
TTITLE7=Bill Green - No More Fair Maidens
TTITLE8=Jody Adams - Fiddle Me Timbers
TTITLE9=Dennis Adkins - Business As Usual
TTITLE10=Rayburn Anthony - I Almost Didn't Think Of You Today
TTITLE11=Jany SZabo - She's a Good Ole Boy
TTITLE12=Darrell McCall - Just Ask Me For a Lifetime (I'll Be There)
TTITLE13=Billy Troy with The Josh Graves Family - South Pa
EXTD=
EXTT0=
EXTT1=
EXTT2=
EXTT3=
EXTT4=
EXTT5=
EXTT6=
EXTT7=
EXTT8=
EXTT9=
EXTT10=
EXTT11=
EXTT12=
EXTT13=
PLAYORDER=
